HIERARCHY
ROOT Hips
{
	OFFSET 0.000000 0.000000 0.000000
	CHANNELS 6 Xposition Yposition Zposition Zrotation Yrotation Xrotation 
	JOINT LowerBack
	{
		OFFSET 0.000000 0.000000 0.000000
		CHANNELS 3 Zrotation Yrotation Xrotation
		JOINT Spine
		{
			OFFSET 0.028270 2.035590 -0.193380
			CHANNELS 3 Zrotation Yrotation Xrotation
			JOINT Spine1
			{
				OFFSET 0.056720 2.048850 -0.042750
				CHANNELS 3 Zrotation Yrotation Xrotation
				JOINT Neck
				{
					OFFSET 0.000000 0.000000 0.000000
					CHANNELS 3 Zrotation Yrotation Xrotation
					JOINT Neck1
					{
						OFFSET -0.054170 1.746240 0.172020
						CHANNELS 3 Zrotation Yrotation Xrotation
						JOINT Head
						{
							OFFSET 0.104070 1.761360 -0.123970
							CHANNELS 3 Zrotation Yrotation Xrotation
							End Site
							{
								OFFSET 0.000000 0.000000 0.000000
							}
						}
					}
				}
				JOINT LeftShoulder
				{
					OFFSET 0.000000 0.000000 0.000000
					CHANNELS 3 Zrotation Yrotation Xrotation
					JOINT LeftArm
					{
						OFFSET 3.362410 1.200890 -0.311210
						CHANNELS 3 Zrotation Yrotation Xrotation
						JOINT LeftForeArm
						{
							OFFSET 4.983000 -0.000000 -0.000000
							CHANNELS 3 Zrotation Yrotation Xrotation
							JOINT LeftHand
							{
								OFFSET 3.483560 -0.000000 -0.000000
								CHANNELS 3 Zrotation Yrotation Xrotation
								JOINT LeftFingerBase
								{
									OFFSET 0.000000 0.000000 0.000000
									CHANNELS 3 Zrotation Yrotation Xrotation
									JOINT LeftHandIndex1
									{
										OFFSET 0.715260 -0.000000 -0.000000
										CHANNELS 3 Zrotation Yrotation Xrotation
										End Site
										{
											OFFSET 0.000000 0.000000 0.000000
										}
									}
								}
								JOINT LThumb
								{
									OFFSET 0.000000 0.000000 0.000000
									CHANNELS 3 Zrotation Yrotation Xrotation
									End Site
									{
										OFFSET 0.000000 0.000000 0.000000
									}
								}
							}
						}
					}
				}
				JOINT RightShoulder
				{
					OFFSET 0.000000 0.000000 0.000000
					CHANNELS 3 Zrotation Yrotation Xrotation
					JOINT RightArm
					{
						OFFSET -3.136600 1.374050 -0.404650
						CHANNELS 3 Zrotation Yrotation Xrotation
						JOINT RightForeArm
						{
							OFFSET -5.241900 -0.000000 -0.000000
							CHANNELS 3 Zrotation Yrotation Xrotation
							JOINT RightHand
							{
								OFFSET -3.444170 -0.000000 -0.000000
								CHANNELS 3 Zrotation Yrotation Xrotation
								JOINT RightFingerBase
								{
									OFFSET 0.000000 0.000000 0.000000
									CHANNELS 3 Zrotation Yrotation Xrotation
									JOINT RightHandIndex1
									{
										OFFSET -0.622530 -0.000000 -0.000000
										CHANNELS 3 Zrotation Yrotation Xrotation
										End Site
										{
											OFFSET 0.000000 0.000000 0.000000
										}
									}
								}
								JOINT RThumb
								{
									OFFSET 0.000000 0.000000 0.000000
									CHANNELS 3 Zrotation Yrotation Xrotation
									End Site
									{
										OFFSET 0.000000 0.000000 0.000000
									}
								}
							}
						}
					}
				}
			}
		}
	}
}
}
MOTION
Frames: 17
Frame Time: 0.008333
-21.012936 16.186036 -0.033103 33.048476 89.740406 59.917416 -8.566960 0.342368 -0.750879 -2.420439 0.787598 -2.908266 -5.023363 0.692878 1.528600 7.809652 -3.408560 -6.721717 -2.709303 -0.210142 0.051400 0.000000 0.000000 0.000000 -5.391349 12.479244 2.589536 -54.285008 18.032228 -4.286793 -5.052445 -10.306063 -0.007573 -4.754647 0.840800 -0.036336 -0.158506 -0.060000 -0.000000 0.000000 0.000000 0.000000 0.000000 0.000000 0.000000 10.961584 0.811337 2.049226 42.890625 33.488901 24.757055 1.111563 69.598497 0.028199 5.630303 9.100555 0.468824 -0.035520 -0.338648 -0.000000 0.000000 0.000000 0.000000 0.000000 0.000000 0.000000 
-20.798857 16.220690 -0.041858 30.841979 89.523588 57.510290 -8.928756 0.306641 -0.631634 -2.508776 0.771182 -2.893098 -5.077419 0.677298 1.502905 7.974772 -3.384154 -6.660362 -2.729357 -0.212051 0.064682 0.000000 0.000000 0.000000 -5.371371 12.208828 2.609343 -54.719158 17.314037 -4.678426 -5.027678 -10.078170 -0.007367 -4.693087 0.935856 -0.039433 -0.155551 -0.055738 -0.000000 0.000000 0.000000 0.000000 0.000000 0.000000 0.000000 11.166886 0.800406 2.041303 43.449677 32.799975 25.011337 1.144516 69.254394 0.028709 5.809491 8.987936 0.477626 -0.035621 -0.332673 0.000000 0.000000 0.000000 0.000000 0.000000 0.000000 0.000000 
-20.586900 16.259004 -0.052746 29.317616 89.331836 55.756353 -9.215931 0.266125 -0.491370 -2.581478 0.745400 -2.874400 -5.132816 0.652699 1.474781 8.123776 -3.354067 -6.581274 -2.748726 -0.214104 0.083270 0.000000 0.000000 0.000000 -5.346035 11.913085 2.630439 -55.195549 16.569023 -4.847719 -5.000072 -10.023793 -0.007297 -4.683460 1.056935 -0.044027 -0.152330 -0.051849 -0.000000 0.000000 0.000000 0.000000 0.000000 0.000000 0.000000 11.346046 0.786856 2.020333 44.090436 32.062044 25.233636 1.180432 68.836943 0.029178 6.013881 8.867143 0.487525 -0.036125 -0.325877 0.000000 0.000000 0.000000 0.000000 0.000000 0.000000 0.000000 
-20.377029 16.300566 -0.065568 28.469431 89.180101 54.656945 -9.421612 0.216663 -0.332578 -2.636467 0.705919 -2.852042 -5.188880 0.614693 1.444450 8.256615 -3.324417 -6.488169 -2.766608 -0.216197 0.106197 0.000000 0.000000 0.000000 -5.316445 11.594484 2.652841 -55.703494 15.798473 -4.768424 -4.970145 -10.165895 -0.007324 -4.724527 1.195298 -0.049817 -0.148907 -0.048373 -0.000000 0.000000 0.000000 0.000000 0.000000 0.000000 0.000000 11.496367 0.763329 1.985768 44.807406 31.276945 25.408833 1.218703 68.352009 0.029570 6.232231 8.742990 0.497922 -0.036878 -0.318443 0.000000 0.000000 0.000000 0.000000 0.000000 0.000000 0.000000 
-20.170055 16.345143 -0.079893 28.401670 89.080688 54.321647 -9.545327 0.154527 -0.155261 -2.673635 0.649200 -2.824729 -5.245840 0.559817 1.414883 8.378302 -3.308133 -6.389082 -2.783139 -0.218227 0.131111 0.000000 0.000000 0.000000 -5.279337 11.263827 2.676068 -56.228011 14.989859 -4.417144 -4.937761 -10.520204 -0.007401 -4.810724 1.339151 -0.056503 -0.145314 -0.045306 -0.000000 0.000000 0.000000 0.000000 0.000000 0.000000 0.000000 11.627685 0.715826 1.938776 45.584417 30.461138 25.527878 1.258750 67.805259 0.029843 6.447287 8.623319 0.507818 -0.037634 -0.310627 0.000000 0.000000 0.000000 0.000000 0.000000 0.000000 0.000000 
-19.965616 16.392536 -0.095628 28.927063 89.032991 54.573069 -9.587079 0.079533 0.034433 -2.692817 0.575320 -2.794514 -5.303924 0.487954 1.382077 8.487473 -3.304095 -6.285588 -2.798157 -0.220177 0.157713 0.000000 0.000000 0.000000 -5.243862 10.912091 2.700117 -56.750334 14.167340 -3.789404 -4.902824 -11.120446 -0.007494 -4.937129 1.477731 -0.063784 -0.141629 -0.042711 -0.000000 0.000000 0.000000 0.000000 0.000000 0.000000 0.000000 11.736732 0.647755 1.881356 46.417308 29.603932 25.573272 1.300099 67.206526 0.029995 6.650103 8.511713 0.516715 -0.038239 -0.302645 0.000000 0.000000 0.000000 0.000000 0.000000 0.000000 0.000000 
-19.764212 16.442667 -0.112428 29.964392 89.030280 55.337039 -9.553655 -0.007305 0.232561 -2.695853 0.485821 -2.762304 -5.364129 0.400583 1.345376 8.587063 -3.315552 -6.182733 -2.812228 -0.222022 0.184550 0.000000 0.000000 0.000000 -5.212970 10.543499 2.724603 -57.248904 13.333912 -2.889562 -4.864319 -11.983088 -0.007562 -5.093282 1.597973 -0.070958 -0.137891 -0.040557 -0.000000 0.000000 0.000000 0.000000 0.000000 0.000000 0.000000 11.830565 0.558308 1.816148 47.294460 28.708090 25.533537 1.342302 66.564023 0.030023 6.829442 8.413231 0.524211 -0.038526 -0.294734 0.000000 0.000000 0.000000 0.000000 0.000000 0.000000 0.000000 
-19.565735 16.495562 -0.129835 31.425547 89.058152 56.531822 -9.457547 -0.103821 0.435036 -2.686003 0.383611 -2.728683 -5.427987 0.300586 1.306003 8.682522 -3.350678 -6.087312 -2.826509 -0.223760 0.209618 0.000000 0.000000 0.000000 -5.188888 10.165358 2.748362 -57.699993 12.489181 -1.732715 -4.820671 -13.119273 -0.007562 -5.265802 1.687532 -0.077427 -0.134117 -0.038787 -0.000000 0.000000 0.000000 0.000000 0.000000 0.000000 0.000000 11.923935 0.441590 1.747232 48.197750 27.790620 25.407931 1.385355 65.880758 0.029922 6.970248 8.335234 0.529713 -0.038250 -0.287133 -0.000000 0.000000 0.000000 0.000000 0.000000 0.000000 0.000000 
-19.370013 16.551121 -0.148082 32.876928 89.098468 57.736855 -9.305495 -0.206921 0.630208 -2.664663 0.272305 -2.695770 -5.496828 0.191428 1.265767 8.775053 -3.417921 -6.005621 -2.842530 -0.225438 0.231338 0.000000 0.000000 0.000000 -5.188212 9.784930 2.769116 -58.073802 11.642067 -0.340592 -4.769798 -14.546677 -0.007482 -5.440829 1.741231 -0.082490 -0.130346 -0.037382 -0.000000 0.000000 0.000000 0.000000 0.000000 0.000000 0.000000 12.028652 0.290968 1.679369 49.102589 26.874262 25.206781 1.429689 65.157458 0.029697 7.058285 8.290901 0.533017 -0.037144 -0.280057 -0.000000 0.000000 0.000000 0.000000 0.000000 0.000000 0.000000 
-19.177360 16.609287 -0.165578 34.594680 89.130235 59.219488 -9.129706 -0.313657 0.825862 -2.639584 0.156271 -2.664626 -5.571313 0.077355 1.214654 8.867794 -3.481941 -5.928361 -2.858600 -0.227021 0.251723 0.000000 0.000000 0.000000 -5.177091 9.395313 2.791922 -58.372362 10.790923 1.198246 -4.711096 -16.224522 -0.007234 -5.603379 1.737295 -0.084744 -0.126591 -0.035917 -0.000000 0.000000 0.000000 0.000000 0.000000 0.000000 0.000000 12.131752 0.148393 1.609704 50.048582 25.898714 24.878369 1.474093 64.403663 0.029405 7.117998 8.250452 0.534423 -0.035766 -0.273394 -0.000000 0.000000 0.000000 0.000000 0.000000 0.000000 0.000000 
-18.987129 16.669816 -0.183458 35.740453 89.140441 60.160790 -8.926167 -0.423236 1.003462 -2.608905 0.036408 -2.636260 -5.652665 -0.040767 1.163974 8.962349 -3.577068 -5.869568 -2.877933 -0.228601 0.267330 0.000000 0.000000 0.000000 -5.191768 9.015866 2.810620 -58.558917 9.938422 2.867398 -4.641977 -18.173945 -0.006852 -5.741995 1.686975 -0.084394 -0.122898 -0.034444 -0.000000 0.000000 0.000000 0.000000 0.000000 0.000000 0.000000 12.261339 -0.024090 1.546416 50.976470 24.947238 24.481924 1.520539 63.603034 0.029022 7.117735 8.248051 0.533734 -0.033459 -0.267373 -0.000000 0.000000 0.000000 0.000000 0.000000 0.000000 0.000000 
-18.799275 16.732313 -0.201219 36.164206 89.117542 60.407527 -8.709537 -0.534440 1.163120 -2.575523 -0.085380 -2.611985 -5.740489 -0.161155 1.108640 9.056647 -3.674942 -5.821734 -2.899282 -0.230173 0.280061 0.000000 0.000000 0.000000 -5.216239 8.649955 2.828358 -58.635787 9.079498 4.590104 -4.562414 -20.353356 -0.006294 -5.848748 1.583962 -0.080737 -0.119336 -0.032570 -0.000000 0.000000 0.000000 0.000000 0.000000 0.000000 0.000000 12.402654 -0.194627 1.486765 51.909093 23.981801 23.986846 1.568310 62.758137 0.028585 7.081103 8.264681 0.531547 -0.030722 -0.261815 -0.000000 0.000000 0.000000 0.000000 0.000000 0.000000 0.000000 
-18.613320 16.796376 -0.218944 35.536120 89.052940 59.633201 -8.485197 -0.647418 1.299454 -2.540253 -0.208926 -2.590982 -5.835852 -0.283501 1.056183 9.155218 -3.797547 -5.790991 -2.924546 -0.231815 0.288278 0.000000 0.000000 0.000000 -5.260214 8.304068 2.841815 -58.587337 8.219768 6.322357 -4.471115 -22.758377 -0.005584 -5.920954 1.441031 -0.074374 -0.115925 -0.030217 -0.000000 0.000000 0.000000 0.000000 0.000000 0.000000 0.000000 12.576928 -0.388488 1.435881 52.815490 23.062990 23.439565 1.619665 61.848387 0.028096 6.995139 8.315938 0.527664 -0.027210 -0.256724 -0.000000 0.000000 0.000000 0.000000 0.000000 0.000000 0.000000 
-18.429830 16.861293 -0.235764 33.968874 88.931721 57.932813 -8.273451 -0.758708 1.423867 -2.507102 -0.329957 -2.573353 -5.935675 -0.403618 0.997073 9.252987 -3.891857 -5.761449 -2.950040 -0.233431 0.295970 0.000000 0.000000 0.000000 -5.276861 7.982629 2.857360 -58.457680 7.337072 7.965939 -4.371648 -25.296095 -0.004655 -5.967526 1.248604 -0.064905 -0.112776 -0.026766 -0.000000 0.000000 0.000000 0.000000 0.000000 0.000000 0.000000 12.748538 -0.545362 1.386260 53.747638 22.110096 22.770121 1.671716 60.881352 0.027577 6.897483 8.353616 0.522080 -0.023798 -0.251712 -0.000000 0.000000 0.000000 0.000000 0.000000 0.000000 0.000000 
-18.247500 16.926472 -0.252526 31.109267 88.748028 54.960527 -8.061212 -0.866286 1.522738 -2.472832 -0.447046 -2.559286 -6.041245 -0.519917 0.942711 9.351557 -3.993945 -5.742277 -2.978530 -0.235148 0.301078 0.000000 0.000000 0.000000 -5.297681 7.695484 2.868744 -58.220550 6.448955 9.523237 -4.262012 -27.986987 -0.003594 -5.992945 1.035994 -0.054032 -0.109878 -0.022400 -0.000000 0.000000 0.000000 0.000000 0.000000 0.000000 0.000000 12.941576 -0.705551 1.344704 54.657783 21.206713 22.048971 1.728035 59.833717 0.027043 6.773941 8.409256 0.515497 -0.019969 -0.246835 -0.000000 0.000000 0.000000 0.000000 0.000000 0.000000 0.000000 
-18.066636 16.991147 -0.268917 27.191657 88.488298 50.937837 -7.851795 -0.964593 1.601483 -2.438221 -0.554702 -2.548616 -6.151181 -0.626872 0.890637 9.448832 -4.084084 -5.725730 -3.008655 -0.236960 0.305655 0.000000 0.000000 0.000000 -5.301241 7.444952 2.877284 -57.900353 5.552769 10.948112 -4.143792 -30.779676 -0.002405 -6.011004 0.811914 -0.042255 -0.107222 -0.016904 -0.000000 0.000000 0.000000 0.000000 0.000000 0.000000 0.000000 13.142140 -0.845147 1.309281 55.561545 20.329825 21.254193 1.787983 58.705025 0.026514 6.643971 8.461167 0.508114 -0.016068 -0.241886 0.000000 0.000000 0.000000 0.000000 0.000000 0.000000 0.000000 
-17.886633 17.054559 -0.284905 22.514215 88.146416 46.154569 -7.634179 -1.048579 1.661927 -2.401279 -0.648642 -2.540949 -6.264929 -0.720091 0.842446 9.543609 -4.160903 -5.709424 -3.040196 -0.238889 0.310450 0.000000 0.000000 0.000000 -5.280006 7.234070 2.881791 -57.509892 4.650651 12.220635 -4.017294 -33.641488 -0.001117 -6.034115 0.590686 -0.030576 -0.104723 -0.010256 -0.000000 0.000000 0.000000 0.000000 0.000000 0.000000 0.000000 13.346705 -0.961174 1.280331 56.456018 19.485114 20.389074 1.851915 57.492364 0.026002 6.515022 8.502462 0.500031 -0.012147 -0.236754 0.000000 0.000000 0.000000 0.000000 0.000000 0.000000 0.000000 
